<svg width="305" height="304" viewBox="0 0 305 304" fill="none" xmlns="http://www.w3.org/2000/svg">
<rect x="89.582" y="302.95" width="302.961" height="125.831" rx="62.9154" transform="rotate(-89.5221 89.582 302.95)" fill="#D9CFD9"/>
<ellipse cx="153.056" cy="235.569" rx="43.5289" ry="46.2613" transform="rotate(-89.5221 153.056 235.569)" fill="#B6FF9B"/>
<ellipse cx="153.506" cy="181.597" rx="43.5289" ry="46.2613" transform="rotate(-89.5221 153.506 181.597)" fill="#FF8585"/>
<ellipse cx="153.943" cy="129.364" rx="43.5289" ry="46.2613" transform="rotate(-89.5221 153.943 129.364)" fill="#93AF93"/>
<ellipse cx="154.453" cy="68.4259" rx="43.5289" ry="46.2613" transform="rotate(-89.5221 154.453 68.4259)" fill="#995050"/>
<rect x="305.008" y="226.862" width="305.008" height="128.749" rx="64.3743" transform="rotate(180 305.008 226.862)" fill="#D9CFD9"/>
<path d="M267.763 162.488C267.763 165.245 265.095 167.763 260.69 169.703C261.498 171.075 262.234 172.42 262.896 173.731C271.484 171.061 276.963 167.018 276.963 162.488C276.963 157.958 271.534 153.953 263.015 151.283C262.358 152.599 261.625 153.95 260.82 155.329C265.15 157.262 267.763 159.76 267.763 162.488Z" fill="#B6FF9B"/>
<path d="M238.399 194.207C235.898 194.207 233.608 191.445 231.827 186.861C230.553 187.749 229.3 188.559 228.08 189.287C230.551 198.369 234.255 204.142 238.399 204.142C242.542 204.142 246.146 198.522 248.617 189.65C247.38 188.934 246.11 188.131 244.813 187.248C243.055 191.599 240.826 194.207 238.399 194.207Z" fill="#B6FF9B"/>
<path d="M238.399 130.77C240.866 130.77 243.13 133.462 244.901 137.944C246.19 137.069 247.454 136.274 248.682 135.564C246.211 126.557 242.521 120.833 238.399 120.833C234.276 120.833 230.488 126.708 228.015 135.928C229.231 136.649 230.476 137.454 231.746 138.335C233.537 133.62 235.86 130.77 238.399 130.77Z" fill="#B6FF9B"/>
<path d="M199.834 162.488C199.834 166.907 205.049 170.862 213.278 173.534C213.954 172.203 214.709 170.838 215.536 169.445C211.47 167.542 209.032 165.123 209.032 162.488C209.032 159.852 211.422 157.486 215.408 155.591C214.582 154.19 213.83 152.816 213.157 151.48C204.997 154.152 199.834 158.091 199.834 162.488Z" fill="#B6FF9B"/>
<path d="M259.328 184.542C257.56 186.452 254.134 186.248 249.873 184.365C249.501 186.23 249.08 187.996 248.617 189.65C256.161 194.024 262.419 195.199 265.307 192.08C268.23 188.922 267.077 182.026 262.896 173.731C261.753 174.088 260.554 174.418 259.307 174.723C260.912 179.142 261.044 182.688 259.328 184.542Z" fill="#B6FF9B"/>
<path d="M217.798 184.542C216.09 182.7 216.212 179.18 217.792 174.797C216.206 174.418 214.697 173.995 213.278 173.534C209.015 181.916 207.82 188.898 210.767 192.08C213.734 195.283 220.257 193.959 228.08 189.287C227.667 187.777 227.291 186.176 226.952 184.497C222.831 186.255 219.522 186.407 217.798 184.542Z" fill="#B6FF9B"/>
<path d="M217.798 139.686C219.544 137.8 222.906 137.977 227.094 139.794C227.376 138.449 227.686 137.158 228.015 135.928C220.219 131.285 213.726 129.977 210.767 133.173C207.847 136.327 208.992 143.205 213.157 151.48C214.686 150.98 216.321 150.524 218.047 150.117C216.229 145.416 216.003 141.625 217.798 139.686Z" fill="#B6FF9B"/>
<path d="M259.328 139.685C261.132 141.635 260.895 145.453 259.049 150.191C260.433 150.523 261.757 150.888 263.015 151.283C267.098 143.096 268.203 136.301 265.306 133.173C262.427 130.065 256.197 131.22 248.682 135.564C249.061 136.945 249.41 138.403 249.731 139.929C254.056 137.987 257.541 137.757 259.328 139.685Z" fill="#B6FF9B"/>
<path d="M227.138 169.214C226.274 171.61 226.207 173.534 227.138 174.54C228.082 175.559 229.888 175.475 232.139 174.515C233.441 180.959 235.756 185.251 238.397 185.251C241.038 185.251 243.369 180.93 244.666 174.445C246.995 175.473 248.868 175.584 249.833 174.54C250.773 173.527 250.7 171.59 249.823 169.173C255.626 167.756 259.47 165.292 259.47 162.487C259.47 159.682 255.565 157.18 249.683 155.767C250.689 153.179 250.819 151.093 249.833 150.026C248.858 148.973 246.954 149.099 244.589 150.159C243.277 143.882 240.994 139.723 238.397 139.723C235.8 139.723 233.533 143.851 232.219 150.085C229.93 149.092 228.092 148.998 227.138 150.026C226.156 151.086 226.28 153.157 227.274 155.727C221.299 157.133 217.321 159.635 217.321 162.487C217.321 165.34 221.239 167.804 227.136 169.214H227.138Z" fill="#B6FF9B"/>
<path d="M186.504 167.728L168.423 183.86L182.869 163.669L159.97 162.763C157.799 164.245 155.982 165.74 154.676 167.198C147.109 175.649 147.109 189.349 154.676 197.8C162.243 206.25 174.512 206.25 182.079 197.8C183.754 195.929 185.498 193.097 187.201 189.679L186.504 167.73V167.728Z" fill="#FF8585"/>
<path d="M215.159 162.76L192.26 163.666L206.707 183.857L188.626 167.725L187.928 189.674C189.632 193.089 191.375 195.923 193.051 197.794C200.618 206.245 212.886 206.245 220.454 197.794C228.021 189.344 228.021 175.643 220.454 167.193C219.147 165.734 217.33 164.239 215.159 162.757V162.76Z" fill="#FF8585"/>
<path d="M188.623 157.24L206.704 141.107L192.258 161.299L215.157 162.205C217.328 160.723 219.145 159.228 220.451 157.77C228.018 149.319 228.018 135.618 220.451 127.168C212.884 118.717 200.615 118.717 193.048 127.168C191.373 129.039 189.63 131.871 187.926 135.286L188.623 157.235V157.24Z" fill="#FF8585"/>
<path d="M159.97 162.207L182.869 161.302L168.423 141.11L186.504 157.243L187.201 135.294C185.498 131.878 183.754 129.044 182.079 127.173C174.512 118.722 162.243 118.722 154.676 127.173C147.109 135.623 147.109 149.324 154.676 157.775C155.982 159.233 157.799 160.728 159.97 162.21V162.207Z" fill="#FF8585"/>
<path d="M95.0733 201.797C100.628 207.799 115.537 201.896 131.467 188.435C147.399 201.896 162.306 207.799 167.862 201.797C173.417 195.795 167.951 179.694 155.492 162.486C167.951 145.279 173.417 129.178 167.862 123.177C162.306 117.175 147.399 123.078 131.467 136.536C115.537 123.078 100.628 117.175 95.0733 123.177C89.5166 129.178 94.982 145.279 107.442 162.486C94.982 179.694 89.5166 195.795 95.0733 201.797ZM118.007 162.486L128.034 161.117C123.742 158.555 117.138 153.244 112.549 148.287C106.205 141.432 107.116 139.599 108.725 137.859C110.336 136.121 112.034 135.137 118.379 141.989C122.941 146.918 127.828 154.01 130.214 158.644L131.467 147.95L132.726 158.694C135.115 154.063 139.997 146.977 144.556 142.052C150.9 135.2 152.6 136.184 154.208 137.922C155.819 139.662 156.73 141.496 150.384 148.35C145.825 153.274 139.278 158.55 134.986 161.127L144.926 162.486L135.023 163.841C139.311 166.416 145.882 171.695 150.443 176.624C156.789 183.476 155.878 185.312 154.267 187.049C152.658 188.79 150.958 189.773 144.615 182.919C140.025 177.965 135.105 170.832 132.736 166.199L131.467 177.024L130.204 166.249C127.835 170.885 122.913 178.023 118.321 182.985C111.975 189.837 110.277 188.853 108.666 187.113C107.058 185.375 106.144 183.539 112.49 176.687C117.082 171.727 123.706 166.411 127.996 163.851L118.007 162.486ZM130.204 166.249C130.813 165.058 131.253 164.031 131.476 163.252C131.705 164.029 132.141 165.033 132.736 166.199L132.979 164.12L135.023 163.841C133.972 163.209 133.059 162.741 132.345 162.478C133.057 162.213 133.956 161.747 134.986 161.127L132.979 160.854L132.726 158.694C132.153 159.807 131.724 160.776 131.476 161.542C131.235 160.771 130.799 159.782 130.214 158.644L129.954 160.854L128.034 161.117C129.111 161.762 130.045 162.23 130.762 162.478C130.043 162.718 129.097 163.194 127.996 163.851L129.954 164.12L130.204 166.249Z" fill="#93AF93"/>
<path d="M85.472 170.853C87.8136 183.558 87.3149 194.107 84.0366 198.437C94.1968 204.37 102.631 205.981 106.509 201.793C111.834 196.044 107.038 181.018 95.6626 164.634C92.7708 166.784 89.3309 168.893 85.472 170.853Z" fill="#995050"/>
<path d="M103.402 147.448C108.895 136.474 110.389 127.363 106.509 123.172C101.187 117.424 87.2752 122.603 72.1063 134.89C74.0966 138.011 76.0495 141.729 77.8642 145.895C89.6284 143.366 99.3952 143.907 103.402 147.448Z" fill="#995050"/>
<path d="M54.7573 154.113C52.4157 141.409 52.9168 130.862 56.1951 126.532C46.0349 120.598 37.6004 118.985 33.7204 123.173C28.3979 128.924 33.1936 143.948 44.5691 160.335C47.4586 158.182 50.9007 156.073 54.7573 154.113Z" fill="#995050"/>
<path d="M36.83 177.52C31.3366 188.495 29.8427 197.605 33.7204 201.793C39.0452 207.545 52.9543 202.365 68.1256 190.078C66.1352 186.954 64.1822 183.239 62.3675 179.071C50.6033 181.6 40.8388 181.061 36.83 177.52Z" fill="#995050"/>
<path d="M45.5313 170.932L68.643 165.558L77.9368 189.039L72.9609 164.075L94.7002 154.037L71.5886 159.412L62.2948 135.93L67.2707 160.894L45.5313 170.932Z" fill="#995050"/>
</svg>
