<svg width="353" height="249" viewBox="0 0 353 249" fill="none" xmlns="http://www.w3.org/2000/svg">
<rect y="249" width="249" height="103.419" rx="51.7094" transform="rotate(-90 0 249)" fill="#D9CFD9"/>
<ellipse cx="51.5158" cy="161.008" rx="35.7759" ry="38.0216" transform="rotate(-90 51.5158 161.008)" fill="#B6FF9B"/>
<ellipse cx="52.7228" cy="116.433" rx="35.7759" ry="38.0216" transform="rotate(-90 52.7228 116.433)" fill="#93AF93"/>
<path d="M352.707 130.47C352.707 159.69 329.019 183.378 299.799 183.378L154.933 183.378C125.713 183.378 102.025 159.69 102.025 130.47V130.47C102.025 101.249 125.713 77.5615 154.933 77.5615L299.799 77.5615C329.019 77.5615 352.707 101.249 352.707 130.47V130.47Z" fill="#D9CFD9"/>
<ellipse cx="212.764" cy="130.366" rx="35.7759" ry="38.0216" transform="rotate(-89.5221 212.764 130.366)" fill="#FF8585"/>
<path d="M52.1611 71.868L37.3004 85.1272L49.1737 68.5318L30.3534 67.7874C28.5693 69.0054 27.0756 70.234 26.0021 71.4328C19.7828 78.3781 19.7828 89.6387 26.0021 96.584C32.2214 103.529 42.3049 103.529 48.5243 96.584C49.9015 95.046 51.3341 92.7188 52.7342 89.9096L52.1611 71.8701V71.868Z" fill="#FF8585"/>
<path d="M75.7127 67.785L56.8924 68.5295L68.7656 85.1248L53.905 71.8656L53.332 89.9051C54.7321 92.7122 56.1647 95.0415 57.5419 96.5795C63.7612 103.525 73.8447 103.525 80.064 96.5795C86.2833 89.6342 86.2833 78.3736 80.064 71.4283C78.9905 70.2295 77.4968 69.0009 75.7127 67.7829V67.785Z" fill="#FF8585"/>
<path d="M53.9031 63.2484L68.7638 49.9891L56.8905 66.5845L75.7109 67.3289C77.4949 66.1109 78.9886 64.8823 80.0621 63.6835C86.2814 56.7382 86.2814 45.4777 80.0621 38.5323C73.8428 31.587 63.7592 31.587 57.5399 38.5323C56.1627 40.0703 54.7301 42.3975 53.33 45.2046L53.9031 63.2441V63.2484Z" fill="#FF8585"/>
<path d="M30.3534 67.331L49.1737 66.5865L37.3004 49.9912L52.1611 63.2504L52.7342 45.2109C51.3341 42.4038 49.9015 40.0745 48.5243 38.5365C42.3049 31.5912 32.2214 31.5912 26.0021 38.5365C19.7828 45.4818 19.7828 56.7424 26.0021 63.6877C27.0756 64.8865 28.5693 66.1151 30.3534 67.3331V67.331Z" fill="#FF8585"/>
<path d="M140.114 163.929C144.679 168.862 156.932 164.01 170.025 152.947C183.119 164.01 195.371 168.862 199.938 163.929C204.503 158.996 200.011 145.763 189.771 131.619C200.011 117.477 204.503 104.244 199.938 99.3113C195.371 94.3784 183.119 99.2302 170.025 110.291C156.932 99.2302 144.679 94.3784 140.114 99.3113C135.547 104.244 140.039 117.477 150.279 131.619C140.039 145.763 135.547 158.996 140.114 163.929ZM158.963 131.619L167.203 130.494C163.676 128.389 158.249 124.023 154.476 119.949C149.263 114.316 150.012 112.808 151.334 111.378C152.658 109.95 154.053 109.142 159.269 114.773C163.018 118.824 167.034 124.653 168.995 128.461L170.025 119.672L171.06 128.503C173.023 124.697 177.036 118.872 180.783 114.825C185.997 109.194 187.394 110.002 188.716 111.43C190.04 112.86 190.789 114.368 185.573 120.001C181.826 124.048 176.445 128.384 172.917 130.503L181.087 131.619L172.948 132.733C176.472 134.849 181.872 139.188 185.621 143.239C190.837 148.87 190.088 150.38 188.764 151.808C187.442 153.238 186.045 154.046 180.831 148.413C177.059 144.341 173.016 138.479 171.068 134.671L170.025 143.568L168.988 134.712C167.04 138.522 162.994 144.389 159.22 148.467C154.005 154.098 152.61 153.29 151.286 151.86C149.963 150.432 149.213 148.922 154.428 143.291C158.202 139.215 163.647 134.845 167.173 132.741L158.963 131.619ZM168.988 134.712C169.488 133.733 169.85 132.889 170.033 132.249C170.221 132.887 170.579 133.712 171.068 134.671L171.268 132.962L172.948 132.733C172.084 132.213 171.334 131.829 170.747 131.613C171.332 131.394 172.071 131.012 172.917 130.503L171.268 130.278L171.06 128.503C170.589 129.418 170.237 130.214 170.033 130.844C169.834 130.21 169.476 129.397 168.995 128.461L168.782 130.278L167.203 130.494C168.089 131.024 168.857 131.409 169.446 131.613C168.855 131.81 168.077 132.201 167.173 132.741L168.782 132.962L168.988 134.712Z" fill="#93AF93"/>
<path d="M65.6544 202.563C67.5789 213.005 67.169 221.675 64.4747 225.234C72.8252 230.111 79.7574 231.435 82.9444 227.992C87.3208 223.268 83.3793 210.918 74.03 197.452C71.6532 199.219 68.826 200.952 65.6544 202.563Z" fill="#995050"/>
<path d="M80.3906 183.327C84.9056 174.307 86.1334 166.82 82.9445 163.375C78.57 158.65 67.1364 162.907 54.6693 173.006C56.3051 175.571 57.9101 178.627 59.4017 182.05C69.0705 179.972 77.0977 180.416 80.3906 183.327Z" fill="#995050"/>
<path d="M40.4103 188.805C38.4858 178.363 38.8977 169.695 41.592 166.136C33.2415 161.259 26.3093 159.933 23.1204 163.375C18.7459 168.103 22.6874 180.45 32.0367 193.918C34.4116 192.149 37.2406 190.416 40.4103 188.805Z" fill="#995050"/>
<path d="M25.6761 208.043C21.1611 217.063 19.9333 224.55 23.1204 227.993C27.4968 232.72 38.9285 228.462 51.3976 218.364C49.7617 215.797 48.1566 212.743 46.6651 209.317C36.9962 211.396 28.9709 210.953 25.6761 208.043Z" fill="#995050"/>
<path d="M32.8276 202.628L51.8228 198.211L59.4613 217.51L55.3716 196.993L73.239 188.742L54.2438 193.16L46.6053 173.861L50.695 194.378L32.8276 202.628Z" fill="#995050"/>
<ellipse cx="274.041" cy="130.366" rx="35.7759" ry="38.0216" transform="rotate(-89.5221 274.041 130.366)" fill="#995050"/>
<path d="M263.8 131.621C263.8 133.888 261.607 135.957 257.987 137.551C258.651 138.679 259.256 139.784 259.8 140.862C266.858 138.668 271.361 135.344 271.361 131.621C271.361 127.898 266.9 124.606 259.898 122.412C259.358 123.493 258.756 124.604 258.094 125.738C261.652 127.326 263.8 129.379 263.8 131.621Z" fill="#B6FF9B"/>
<path d="M239.666 157.691C237.61 157.691 235.729 155.421 234.265 151.653C233.218 152.383 232.187 153.049 231.185 153.647C233.216 161.111 236.26 165.856 239.666 165.856C243.071 165.856 246.033 161.238 248.064 153.946C247.048 153.357 246.004 152.697 244.937 151.971C243.493 155.547 241.661 157.691 239.666 157.691Z" fill="#B6FF9B"/>
<path d="M239.666 105.553C241.694 105.553 243.555 107.765 245.01 111.449C246.069 110.73 247.108 110.076 248.118 109.493C246.086 102.09 243.054 97.3858 239.666 97.3858C236.277 97.3858 233.164 102.214 231.131 109.792C232.131 110.385 233.154 111.046 234.198 111.771C235.67 107.895 237.579 105.553 239.666 105.553Z" fill="#B6FF9B"/>
<path d="M207.97 131.621C207.97 135.253 212.256 138.504 219.019 140.7C219.575 139.606 220.196 138.484 220.875 137.339C217.533 135.775 215.53 133.787 215.53 131.621C215.53 129.455 217.494 127.51 220.77 125.953C220.091 124.801 219.473 123.672 218.92 122.574C212.214 124.77 207.97 128.008 207.97 131.621Z" fill="#B6FF9B"/>
<path d="M256.867 149.747C255.414 151.317 252.598 151.15 249.096 149.602C248.79 151.135 248.444 152.586 248.064 153.946C254.265 157.541 259.408 158.506 261.781 155.943C264.184 153.347 263.236 147.68 259.8 140.862C258.861 141.155 257.875 141.426 256.85 141.677C258.169 145.309 258.278 148.224 256.867 149.747Z" fill="#B6FF9B"/>
<path d="M222.734 149.747C221.331 148.233 221.431 145.341 222.729 141.738C221.426 141.426 220.185 141.079 219.019 140.7C215.516 147.589 214.534 153.327 216.955 155.943C219.394 158.575 224.755 157.487 231.185 153.647C230.846 152.406 230.536 151.09 230.258 149.71C226.871 151.155 224.152 151.28 222.734 149.747Z" fill="#B6FF9B"/>
<path d="M222.735 112.88C224.169 111.331 226.933 111.476 230.375 112.969C230.607 111.864 230.861 110.803 231.131 109.792C224.725 105.976 219.388 104.901 216.955 107.528C214.556 110.12 215.497 115.773 218.92 122.574C220.177 122.163 221.52 121.788 222.939 121.454C221.445 117.59 221.259 114.474 222.735 112.88Z" fill="#B6FF9B"/>
<path d="M256.867 112.88C258.35 114.483 258.155 117.621 256.638 121.515C257.775 121.788 258.864 122.087 259.898 122.412C263.253 115.683 264.162 110.099 261.781 107.527C259.414 104.973 254.294 105.922 248.118 109.493C248.429 110.628 248.716 111.826 248.979 113.08C252.535 111.484 255.398 111.295 256.867 112.88Z" fill="#B6FF9B"/>
<path d="M230.411 137.15C229.7 139.119 229.645 140.7 230.411 141.526C231.186 142.364 232.671 142.296 234.521 141.506C235.591 146.802 237.494 150.33 239.664 150.33C241.835 150.33 243.751 146.778 244.817 141.448C246.731 142.294 248.271 142.385 249.064 141.526C249.836 140.694 249.776 139.102 249.055 137.116C253.825 135.951 256.984 133.926 256.984 131.621C256.984 129.315 253.775 127.259 248.94 126.098C249.767 123.971 249.874 122.256 249.064 121.379C248.262 120.513 246.697 120.617 244.753 121.489C243.675 116.33 241.799 112.911 239.664 112.911C237.53 112.911 235.667 116.304 234.587 121.427C232.705 120.612 231.195 120.534 230.411 121.379C229.604 122.25 229.706 123.952 230.523 126.064C225.612 127.22 222.342 129.276 222.342 131.621C222.342 133.965 225.562 135.99 230.409 137.15H230.411Z" fill="#B6FF9B"/>
</svg>
