<svg width="48" height="48" viewBox="0 0 48 48" fill="none" xmlns="http://www.w3.org/2000/svg">
<path d="M39.5086 24C40.8504 23.1706 41.9707 22.3289 42.7622 21.5118C47.0793 17.0482 47.0793 9.81132 42.7622 5.34771C38.4452 0.884098 31.446 0.884098 27.129 5.34771C26.1055 6.40603 25.0368 8.04699 24 10.0265C22.9632 8.04836 21.8945 6.40603 20.871 5.34771C16.554 0.884098 9.55475 0.884098 5.23775 5.34771C0.92075 9.81132 0.92075 17.0482 5.23775 21.5118C6.02929 22.3303 7.14964 23.1706 8.49141 24C7.14964 24.8294 6.02929 25.6711 5.23775 26.4882C0.92075 30.9518 0.92075 38.1887 5.23775 42.6523C9.55475 47.1159 16.554 47.1159 20.871 42.6523C21.8945 41.594 22.9632 39.953 24 37.9735C25.0368 39.9516 26.1055 41.5926 27.129 42.6523C31.446 47.1159 38.4452 47.1159 42.7622 42.6523C47.0793 38.1887 47.0793 30.9518 42.7622 26.4882C41.9707 25.6697 40.8504 24.8294 39.5086 24ZM25.6653 25.7218L24 35.4099L22.3347 25.7218L12.9649 24L22.3347 22.2782L24 12.5901L25.6653 22.2782L35.0351 24L25.6653 25.7218Z" fill="black"/>
</svg>
