<svg width="48" height="48" viewBox="0 0 48 48" fill="none" xmlns="http://www.w3.org/2000/svg">
<path d="M39.5086 24C40.8504 23.1706 41.9707 22.3289 42.7622 21.5118C47.0793 17.0482 47.0793 9.81132 42.7622 5.34771C38.4452 0.884098 31.446 0.884098 27.129 5.34771C26.1054 6.40603 25.0369 8.04699 24 10.0265C22.9632 8.04836 21.8946 6.40603 20.871 5.34771C16.554 0.884098 9.55475 0.884098 5.23775 5.34771C0.92075 9.81132 0.92075 17.0482 5.23775 21.5118C6.02929 22.3303 7.14965 23.1706 8.49142 24C7.14965 24.8294 6.02929 25.6711 5.23775 26.4882C0.92075 30.9518 0.92075 38.1887 5.23775 42.6523C9.55475 47.1159 16.554 47.1159 20.871 42.6523C21.8946 41.594 22.9632 39.953 24 37.9735C25.0369 39.9516 26.1054 41.5926 27.129 42.6523C31.446 47.1159 38.4452 47.1159 42.7622 42.6523C47.0793 38.1887 47.0793 30.9518 42.7622 26.4882C41.9707 25.6697 40.8504 24.8294 39.5086 24ZM35.6424 32.3651C39.547 36.4024 38.9862 37.4841 37.9958 38.5081C37.0053 39.5322 35.9593 40.112 32.0546 36.0748C28.5583 32.4584 24.7504 26.8638 23.9934 24.5552C23.2085 26.8857 19.4231 32.4406 15.9441 36.0378C12.0394 40.075 10.9933 39.4951 10.0029 38.4711C9.01247 37.447 8.45163 36.3654 12.3563 32.3281C15.8353 28.7309 21.1958 24.8157 23.4591 24.0055C21.225 23.22 15.8155 19.2855 12.3205 15.6705C8.41583 11.6332 8.97667 10.5516 9.96708 9.52754C10.9575 8.50349 12.0036 7.9236 15.9083 11.9609C19.4417 15.6143 23.292 21.2733 23.9947 23.549C24.6643 21.3007 28.5384 15.5978 32.0917 11.9238C35.9964 7.88659 37.0425 8.46647 38.0329 9.49052C39.0233 10.5146 39.5842 11.5962 35.6795 15.6335C32.1275 19.3061 26.6 23.3104 24.4349 24.0041C26.6332 24.7279 32.1103 28.7117 35.6437 32.3651H35.6424Z" fill="black"/>
</svg>
