<svg width="48" height="48" viewBox="0 0 48 48" fill="none" xmlns="http://www.w3.org/2000/svg">
<path d="M39.6533 24.0918L28.9433 25.2187C29.0335 24.828 29.0825 24.4195 29.0825 24C29.0825 23.5805 29.0335 23.1734 28.9433 22.7813L39.6546 23.9082C40.9301 23.1076 42 22.2987 42.761 21.5118C47.0779 17.0482 47.0779 9.81132 42.761 5.34771C38.4441 0.884098 31.4452 0.884098 27.1283 5.34771C26.1896 6.3183 25.2125 7.77966 24.2579 9.54125L25.178 18.888C24.8001 18.7947 24.405 18.744 23.9993 18.744C23.5936 18.744 23.1999 18.7947 22.8207 18.888L23.7408 9.54125C22.7862 7.77966 21.8091 6.3183 20.8704 5.34771C16.5535 0.884098 9.55452 0.884098 5.23765 5.34771C0.920782 9.81132 0.920782 17.0482 5.23765 21.5118C6 22.3001 7.06862 23.1089 8.34406 23.9082L19.0554 22.7813C18.9652 23.172 18.9161 23.5805 18.9161 24C18.9161 24.4195 18.9652 24.8266 19.0554 25.2187L8.34538 24.0918C7.06862 24.8924 6 25.7013 5.23898 26.4882C0.922109 30.9518 0.922109 38.1887 5.23898 42.6523C9.55585 47.1159 16.5549 47.1159 20.8717 42.6523C21.8104 41.6817 22.7875 40.2203 23.7421 38.4588L22.822 29.112C23.1999 29.2053 23.595 29.256 24.0007 29.256C24.4064 29.256 24.8002 29.2053 25.1793 29.112L24.2592 38.4588C25.2138 40.2203 26.1909 41.6817 27.1296 42.6523C31.4465 47.1159 38.4455 47.1159 42.7623 42.6523C47.0792 38.1887 47.0792 30.9518 42.7623 26.4882C42 25.6999 40.9314 24.8911 39.656 24.0918H39.6533ZM12.3096 11.9143L21.3331 19.5213C20.6556 19.9531 20.0842 20.544 19.6666 21.2445L12.3096 11.9143ZM12.3096 36.0844L19.6666 26.7541C20.0842 27.4546 20.6556 28.0455 21.3331 28.4773L12.3096 36.0844ZM35.6851 11.9143L28.3282 21.2445C27.9105 20.544 27.3391 19.9531 26.6616 19.5213L35.6851 11.9143ZM26.6616 28.4773C27.3391 28.0455 27.9105 27.4546 28.3282 26.7541L35.6851 36.0844L26.6616 28.4773Z" fill="#EC8244"/>
</svg>
