<svg width="18" height="19" viewBox="0 0 18 19" fill="none" xmlns="http://www.w3.org/2000/svg">
<g clip-path="url(#clip0_44_751)">
<path d="M17.2041 9.55229C17.2041 4.80757 13.3814 0.961426 8.66659 0.961426C3.94962 0.962493 0.126953 4.80757 0.126953 9.55335C0.126953 13.8402 3.24954 17.394 7.33047 18.0386V12.0356H5.16408V9.55335H7.3326V7.65909C7.3326 5.50658 8.60789 4.31773 10.5576 4.31773C11.4925 4.31773 12.469 4.48528 12.469 4.48528V6.59831H11.3922C10.3325 6.59831 10.0016 7.26103 10.0016 7.94083V9.55229H12.3687L11.9909 12.0346H10.0006V18.0375C14.0815 17.3929 17.2041 13.8392 17.2041 9.55229Z" fill="#059BE5"/>
</g>
<defs>
<clipPath id="clip0_44_751">
<rect x="0.128906" y="0.962402" width="17.075" height="17.075" rx="8.5375" fill="white"/>
</clipPath>
</defs>
</svg>
