<svg width="294" height="294" viewBox="0 0 294 294" fill="none" xmlns="http://www.w3.org/2000/svg">
<path d="M44.4004 146.999C44.4004 138.078 53.7238 129.932 69.116 123.658C66.2935 119.22 63.7196 114.869 61.4089 110.628C31.3995 119.264 12.2559 132.345 12.2559 146.999C12.2559 161.653 31.2237 174.61 60.9919 183.246C63.2879 178.99 65.8474 174.618 68.6626 170.157C53.5336 163.905 44.4004 155.825 44.4004 146.999Z" fill="#DDD0C4"/>
<path d="M147.006 44.3868C155.744 44.3868 163.744 53.3224 169.967 68.1516C174.42 65.2779 178.8 62.6601 183.063 60.3056C174.427 30.925 161.485 12.2495 147.006 12.2495C132.528 12.2495 119.936 30.4277 111.301 59.1283C115.622 61.4463 120.06 64.0421 124.594 66.9012C130.736 52.8251 138.524 44.3868 147.006 44.3868Z" fill="#DDD0C4"/>
<path d="M147.006 249.606C138.385 249.606 130.473 240.897 124.287 226.397C119.783 229.227 115.366 231.801 111.074 234.097C119.71 263.236 132.601 281.751 147.006 281.751C161.411 281.751 174.646 262.746 183.289 232.92C179.041 230.587 174.69 227.984 170.252 225.132C163.993 240.385 155.876 249.606 147.006 249.606Z" fill="#DDD0C4"/>
<path d="M281.756 146.999C281.756 132.704 263.534 119.907 234.782 111.264C232.42 115.571 229.781 119.988 226.892 124.492C241.1 130.649 249.619 138.473 249.619 146.999C249.619 155.525 241.268 163.181 227.338 169.309C230.227 173.842 232.852 178.288 235.206 182.61C263.717 173.967 281.756 161.221 281.756 146.999Z" fill="#DDD0C4"/>
<path d="M73.8757 75.6549C80.0545 69.4761 92.0248 70.1342 106.913 76.2253C108.214 70.1927 109.685 64.4808 111.301 59.1283C84.94 44.9791 63.0756 41.1777 52.9848 51.2686C42.7695 61.4838 46.799 83.7922 61.4089 110.628C65.4014 109.473 69.5908 108.406 73.9489 107.419C68.3404 93.1239 67.8797 81.651 73.8757 75.6549Z" fill="#DDD0C4"/>
<path d="M218.988 75.6545C224.955 81.614 224.531 92.9992 219.01 107.178C224.552 108.406 229.825 109.772 234.782 111.264C249.677 84.1503 253.853 61.5639 243.557 51.2682C233.188 40.9068 210.396 45.1912 183.063 60.3056C184.503 65.1901 185.82 70.3678 187.004 75.8008C201.402 70.1119 212.963 69.6219 218.988 75.6545Z" fill="#DDD0C4"/>
<path d="M218.987 220.764C212.889 226.862 201.138 226.292 186.507 220.413C185.519 224.764 184.437 228.942 183.289 232.92C210.527 247.939 233.217 252.17 243.557 241.831C253.757 231.63 249.757 209.38 235.206 182.61C229.861 184.226 224.15 185.702 218.117 187.018C224.472 202.228 225.261 214.49 218.987 220.764Z" fill="#DDD0C4"/>
<path d="M73.8762 220.767C67.5731 214.456 68.3994 202.106 74.8488 186.779C70.0154 185.704 65.3865 184.526 60.9919 183.246C46.7257 209.731 42.8652 231.713 52.9853 241.833C63.0469 251.888 84.8155 248.151 111.074 234.097C109.75 229.629 108.529 224.913 107.41 219.977C92.2957 226.258 80.1209 227.004 73.8762 220.767Z" fill="#DDD0C4"/>
<path d="M186.353 125.239C189.373 117.488 189.607 111.266 186.353 108.012C183.055 104.714 176.745 104.984 168.877 108.092C164.328 87.2449 156.241 73.3589 147.013 73.3589C137.785 73.3589 129.639 87.3399 125.106 108.319C116.967 104.992 110.423 104.633 107.052 108.012C103.769 111.288 104.024 117.554 107.088 125.371C86.8114 129.956 73.3788 137.926 73.3788 147.001C73.3788 156.075 87.0234 164.17 107.578 168.74C104.061 177.112 103.608 183.862 107.052 187.313C110.459 190.72 117.114 190.311 125.376 186.881C129.961 207.188 137.939 220.642 147.013 220.642C156.088 220.642 164.007 207.29 168.599 187.123C176.599 190.333 183.019 190.64 186.353 187.313C189.782 183.883 189.351 177.185 185.878 168.871C206.754 164.323 220.655 156.229 220.655 147.001C220.655 137.772 206.966 129.802 186.36 125.239H186.353Z" fill="#DDD0C4"/>
</svg>
