<svg width="3624" height="3819" viewBox="0 0 3624 3819" fill="none" xmlns="http://www.w3.org/2000/svg">
<g clip-path="url(#clip0_153_1403)">
<path d="M2313.55 804.101C2261.46 894.433 2175.51 964.72 2076.4 998.003C1977.28 1031.29 1865.87 1027.28 1769.01 986.956C1828.6 867.153 1954.69 780.963 2088.98 775.466C2162.76 772.412 2241.92 785.765 2313.55 804.101Z" fill="#003100"/>
<path d="M1889.49 608.783C1861.41 667.136 1837.47 727.363 1817.59 788.958C1798.59 850.84 1783.66 913.92 1772.29 977.65C1761.65 1041.52 1754.79 1106 1750.9 1170.67C1747.67 1235.4 1747.69 1300.28 1750.21 1365.08C1761.51 1624.73 1822.07 1879.74 1894.95 2129.96C1967.94 2380.56 2054.43 2628.25 2120.7 2883.37C2186.83 3137.83 2233.71 3401.8 2222.99 3669.08C2222.15 3690.25 2204.28 3706.63 2183.03 3705.69C2161.79 3704.75 2145.27 3686.82 2146.09 3665.67C2146.09 3665.5 2146.12 3665.1 2146.12 3664.93C2161.14 3408.89 2120.68 3150.61 2059.88 2898.19C1999.09 2645.22 1917.25 2396.23 1848.33 2142.78C1779.6 1889.74 1722.76 1630.13 1716.06 1366.11C1714.67 1300.23 1715.86 1234.33 1720.35 1168.6C1725.5 1102.93 1733.68 1037.5 1745.68 972.747C1758.42 908.121 1774.76 844.242 1795.24 781.678C1816.59 719.391 1842.05 658.598 1871.66 599.831C1874.12 594.965 1880.1 593.008 1885 595.484C1889.86 597.939 1891.85 603.789 1889.51 608.623L1889.49 608.783Z" fill="#284E22"/>
<path d="M1835.81 1909.1C1804.63 2001.61 1736.56 2081.01 1649.78 2126.09C1563.01 2171.15 1458.52 2181.4 1364.22 2154.09C1363 2091.23 1389.86 2029.17 1428.62 1979.78C1467.39 1930.36 1523.59 1894.88 1585.03 1881.02C1666.01 1862.73 1758.15 1879.23 1835.81 1909.1Z" fill="#003100"/>
<path d="M1403.94 595.914C1392.86 589.496 1383.14 606.715 1394.23 613.161C1537.53 696.289 1659.85 813.094 1749.19 952.374C1756.08 963.103 1773.23 953.21 1766.32 942.412C1675.08 800.185 1550.3 680.807 1403.94 595.914Z" fill="#A36874"/>
<path d="M1752.62 944.097C1678.1 897.702 1594.73 866.305 1508.14 852.214C1495.59 850.161 1490.5 869.291 1503.16 871.36C1588.24 885.223 1669.67 915.733 1742.9 961.344C1753.78 968.11 1763.49 950.881 1752.62 944.097Z" fill="#A36874"/>
<path d="M1638.84 473.171C1636.48 460.628 1617.31 465.748 1619.65 478.234C1649.42 636.885 1696.6 791.81 1759.83 940.536C1764.81 952.245 1781.91 942.197 1776.96 930.556C1714.47 783.538 1668.27 629.947 1638.84 473.171Z" fill="#A36874"/>
<path d="M1756.82 635.971C1749.84 736.78 1758.07 837.635 1781.21 936.183C1784.11 948.578 1802.73 941.655 1799.83 929.384C1777.56 834.539 1769.67 736.523 1776.4 639.487C1777.26 626.863 1757.71 623.263 1756.82 635.971Z" fill="#A36874"/>
<path d="M1418.63 613.401C1414.86 566.788 1394.35 521.612 1361.67 487.882C1328.99 454.181 1284.38 432.205 1237.77 426.83C1213.92 476.565 1219.59 540.56 1257.46 581.089C1295.34 621.647 1367.15 633.577 1418.63 613.401Z" fill="#D9CFD9"/>
<path d="M1418.46 613.716C1384.39 644.429 1339.92 663.501 1294.03 667.064C1248.15 670.627 1201.09 658.676 1162.36 633.649C1161.86 597.89 1185.59 565.212 1218.67 551.574C1251.75 537.936 1290.21 541.435 1323.54 554.833C1356.86 568.232 1392.02 589.43 1418.46 613.716Z" fill="#E9E9E9"/>
<path d="M1629.79 514.073C1669.47 489.379 1700.07 450.564 1714.78 406.259C1729.47 361.943 1728.17 312.462 1711.16 268.821C1655.77 270.533 1601.51 304.842 1583.18 356.871C1564.84 408.901 1587.79 477.822 1629.79 514.073Z" fill="#D9CFD9"/>
<path d="M1629.43 514.061C1586.19 498.023 1548.45 467.458 1523.84 428.539C1499.21 389.61 1487.84 342.554 1492.02 296.86C1523.57 280.04 1563.74 286.039 1591.32 309.037C1618.9 332.036 1633.77 367.633 1637.44 403.203C1641.1 438.792 1638.67 479.561 1629.43 514.061Z" fill="#E9E9E9"/>
<path d="M1760.6 681.448C1802.7 661.048 1837.21 625.656 1856.5 583.137C1875.78 540.636 1879.67 491.3 1867.32 446.137C1812.03 442.054 1754.45 470.502 1730.73 520.311C1707.01 570.121 1722.62 641.026 1760.6 681.448Z" fill="#D9CFD9"/>
<path d="M1760.26 681.402C1718.93 660.957 1684.58 626.639 1664.16 585.377C1643.74 544.115 1637.36 496.161 1646.33 451.176C1679.48 437.751 1718.82 447.896 1743.87 473.626C1768.91 499.357 1779.97 536.279 1779.87 572.031C1779.77 607.783 1773.06 648.08 1760.26 681.402Z" fill="#E9E9E9"/>
<path d="M1544.7 874.741C1515.2 910.931 1472.75 936.375 1426.78 945.433C1380.82 954.49 1331.71 947.079 1290.33 924.862C1298.87 870.332 1339.77 820.919 1393.86 809.232C1447.96 797.526 1513.78 828.751 1544.7 874.741Z" fill="#D9CFD9"/>
<path d="M1544.73 874.374C1534.08 829.648 1508.31 788.563 1472.6 759.42C1436.86 730.267 1391.4 713.202 1345.38 711.684C1324.72 740.789 1325.75 781.244 1345.24 811.36C1364.73 841.476 1398.34 860.58 1433.33 868.583C1468.31 876.605 1509.22 879.241 1544.73 874.374Z" fill="#E9E9E9"/>
<path d="M2368.77 2290.29C2377.7 2281.22 2391.77 2295.3 2382.8 2304.39C2267.21 2421.74 2181.02 2566.12 2132.68 2723.58C2128.96 2735.72 2109.72 2730.62 2113.48 2718.43C2162.83 2557.64 2250.72 2410.15 2368.77 2290.29Z" fill="#A36874"/>
<path d="M2127.17 2716.52C2186.41 2652.45 2258.27 2600.51 2337.91 2564.45C2349.44 2559.22 2359.54 2576.35 2347.91 2581.62C2269.65 2617.08 2199.42 2667.65 2141.2 2730.62C2132.56 2739.98 2118.53 2725.88 2127.17 2716.52Z" fill="#A36874"/>
<path d="M2108.95 2232.95C2107.81 2220.25 2127.69 2220.2 2128.83 2232.85C2143.2 2393.53 2139.8 2555.14 2119.23 2714.96C2117.6 2727.54 2098.4 2722.3 2100 2709.8C2120.34 2551.84 2123.17 2391.75 2108.95 2232.95Z" fill="#A36874"/>
<path d="M2039.43 2420.56C2073.54 2515.94 2092.98 2615.32 2097.44 2716.31C2098.01 2729.03 2078.19 2727.17 2077.64 2714.59C2073.36 2617.37 2054.33 2520.82 2021.5 2429.02C2017.24 2417.09 2035.12 2408.53 2039.43 2420.56Z" fill="#A36874"/>
<path d="M2359.35 2310.97C2350.32 2265.05 2357.85 2216.16 2380.19 2175.19C2402.54 2134.21 2439.57 2101.43 2483.06 2084.15C2519.57 2125.92 2531.48 2189.08 2505.97 2237.99C2480.45 2286.89 2414.45 2317.06 2359.35 2310.97Z" fill="#D9CFD9"/>
<path d="M2359.6 2311.23C2400.77 2331.99 2448.82 2338.82 2494.04 2330.36C2539.25 2321.89 2581.37 2298.15 2611.91 2263.94C2602.67 2229.35 2570.93 2204 2535.34 2199.45C2499.74 2194.88 2463.61 2208.24 2435.12 2229.82C2406.63 2251.4 2378.5 2280.95 2359.6 2311.23Z" fill="#E9E9E9"/>
<path d="M2128.78 2270.05C2083.8 2256.54 2043.78 2227.08 2017.57 2188.17C1991.36 2149.27 1979.19 2101.22 1983.73 2054.73C2037.59 2041.99 2099.21 2060.98 2131.03 2106.39C2162.85 2151.78 2159.44 2224.18 2128.78 2270.05Z" fill="#D9CFD9"/>
<path d="M2129.15 2269.94C2166.48 2243.24 2194.56 2203.99 2207.73 2160.07C2220.91 2116.15 2219.08 2067.83 2202.65 2024.86C2167.65 2016.83 2130.57 2033.07 2110.22 2062.4C2089.88 2091.73 2085.19 2129.9 2091.33 2165.15C2097.48 2200.41 2110.87 2239.08 2129.15 2269.94Z" fill="#E9E9E9"/>
<path d="M2048.13 2465.39C2002.02 2456.66 1959.12 2431.51 1929 2395.52C1898.86 2359.55 1881.71 2313 1881.36 2266.25C1933.55 2247.96 1996.81 2260.44 2033.19 2302.3C2069.56 2344.13 2073.77 2416.55 2048.13 2465.39Z" fill="#D9CFD9"/>
<path d="M2048.47 2465.24C2082.78 2434.79 2106.56 2392.79 2115.05 2347.71C2123.53 2302.62 2116.64 2254.74 2095.81 2213.7C2060.19 2209.37 2025.02 2229.37 2007.88 2260.67C1990.73 2291.98 1990.09 2330.46 1999.88 2364.91C2009.68 2399.36 2027.06 2436.44 2048.47 2465.24Z" fill="#E9E9E9"/>
<path d="M2308.79 2595.65C2347.06 2622.88 2394.9 2636.39 2441.66 2633.18C2488.42 2629.97 2533.77 2610.07 2567.64 2577.91C2544.6 2527.54 2491.76 2490.53 2436.42 2493.31C2381.09 2496.11 2326.11 2543.29 2308.79 2595.65Z" fill="#D9CFD9"/>
<path d="M2308.65 2595.33C2306.76 2549.45 2320.45 2503.16 2346.97 2465.76C2373.51 2428.37 2412.7 2400.11 2456.68 2386.69C2484.5 2409.39 2494.5 2448.65 2483.88 2482.75C2473.28 2516.84 2446.04 2543.99 2414.49 2560.81C2382.92 2577.62 2344.21 2590.81 2308.65 2595.33Z" fill="#E9E9E9"/>
<path d="M1749.55 1403.13C1745.14 1391.14 1726.56 1398.09 1730.99 1410.12C1788.06 1565.19 1807.29 1732.6 1786.68 1896.14C1785.09 1908.74 1804.69 1912.14 1806.29 1899.47C1827.32 1732.46 1807.83 1561.52 1749.55 1403.13Z" fill="#A36874"/>
<path d="M1794.59 1892.01C1766.97 1808.95 1722.84 1731.69 1665.15 1665.61C1656.8 1656.04 1640.56 1667.41 1648.98 1677.07C1705.68 1742.02 1748.86 1817.35 1776.01 1899C1780.06 1911.1 1798.63 1904.12 1794.59 1892.01Z" fill="#A36874"/>
<path d="M2009.59 1459.37C2015.84 1448.28 1997.77 1439.94 1991.55 1450.97C1912.53 1591.25 1849.33 1739.82 1802.49 1893.89C1798.8 1906.02 1818.44 1909.25 1822.11 1897.21C1868.38 1744.9 1931.49 1598.01 2009.59 1459.37Z" fill="#A36874"/>
<path d="M1995.9 1659.16C1925.72 1731.77 1867.24 1814.1 1821.73 1904.21C1816 1915.54 1834.8 1922.13 1840.47 1910.91C1884.27 1824.18 1941.19 1744.24 2008.75 1674.36C2017.52 1665.28 2004.76 1650.03 1995.9 1659.16Z" fill="#A36874"/>
<path d="M1749.62 1425.9C1776.67 1387.85 1789.9 1340.23 1786.37 1293.58C1782.84 1246.93 1762.58 1201.66 1730.08 1167.79C1679.73 1190.57 1642.94 1243.11 1646.1 1298.26C1649.26 1353.44 1696.95 1408.44 1749.62 1425.9Z" fill="#D9CFD9"/>
<path d="M1749.28 1426.02C1703.27 1427.74 1656.73 1413.9 1619.04 1387.32C1581.36 1360.72 1552.76 1321.55 1538.99 1277.67C1561.58 1250.03 1600.89 1240.21 1635.17 1250.92C1669.44 1261.63 1696.85 1288.87 1713.95 1320.39C1731.02 1351.92 1744.5 1390.56 1749.28 1426.02Z" fill="#E9E9E9"/>
<path d="M1976.3 1484.86C2022.78 1491.35 2071.32 1481.21 2111.14 1456.74C2150.97 1432.26 2181.77 1393.61 2196.71 1349.38C2152.9 1315.31 2089 1306.87 2041.41 1334.92C1993.84 1362.96 1967.23 1430.31 1976.3 1484.86Z" fill="#D9CFD9"/>
<path d="M1976.03 1484.61C1953 1444.72 1943.54 1397.27 1949.57 1351.78C1955.59 1306.29 1977.07 1263.07 2009.67 1230.81C2044.82 1238.11 2071.91 1268.36 2078.4 1303.55C2084.9 1338.74 2073.49 1375.46 2053.45 1404.99C2033.39 1434.53 2005.33 1464.15 1976.03 1484.61Z" fill="#E9E9E9"/>
<path d="M1969.6 1696.34C2015.17 1707.64 2064.53 1702.63 2106.71 1682.45C2148.9 1662.28 2183.61 1627.07 2203.13 1584.65C2163.11 1546.21 2100.41 1531.16 2050.13 1554.09C1999.84 1577.03 1966.29 1641.2 1969.6 1696.34Z" fill="#D9CFD9"/>
<path d="M1969.35 1696.08C1950.61 1654.06 1946.19 1605.88 1956.96 1561.29C1967.72 1516.71 1993.63 1475.99 2029.45 1447.32C2063.66 1458.23 2087.46 1491.12 2090.21 1526.78C2092.97 1562.45 2077.78 1597.73 2054.72 1625C2031.68 1652.29 2000.64 1678.8 1969.35 1696.08Z" fill="#E9E9E9"/>
<path d="M1678.84 1706.18C1632.84 1715 1583.75 1707.34 1542.48 1684.89C1501.23 1662.45 1468.1 1625.4 1450.47 1581.99C1492.11 1545.76 1555.4 1534.12 1604.63 1559.74C1653.86 1585.37 1684.58 1651.27 1678.84 1706.18Z" fill="#D9CFD9"/>
<path d="M1679.11 1705.92C1699.67 1664.95 1706.2 1617.07 1697.39 1571.98C1688.58 1526.86 1664.49 1484.79 1629.96 1454.21C1595.32 1463.27 1570.1 1494.83 1565.79 1530.29C1561.46 1565.77 1575.11 1601.84 1596.93 1630.32C1618.74 1658.8 1648.59 1686.95 1679.11 1705.92Z" fill="#E9E9E9"/>
<path d="M1744.27 987.517C1764.72 888.37 1815.36 795.749 1887.77 725.028C1960.19 654.288 2054.12 605.724 2153.98 587.372C2161.93 694.894 2124.03 806.681 2048.68 883.576C1973.37 960.493 1852.28 992.906 1744.27 987.517Z" fill="#284E22"/>
<path d="M1839.13 1911.97C1813.08 1875.97 1776.65 1848.68 1738.66 1825.5C1588.86 1734.08 1405.16 1699.75 1232.91 1730.99C1235.49 1779.48 1259.24 1831.41 1290.77 1868.57C1322.31 1905.72 1363.67 1933.83 1408.06 1954.03C1543.3 2015.55 1717.3 1995.71 1839.13 1911.97Z" fill="#284E22"/>
<path d="M2030.82 2761.62C2040.73 2738.55 2058.3 2719.32 2078.71 2704.63C2099.11 2689.95 2122.32 2679.55 2145.97 2670.96C2255.23 2631.24 2377.94 2628.86 2489.08 2664.29C2475.3 2723.15 2422.55 2766.52 2365.39 2786.59C2308.23 2806.66 2245.94 2806.28 2185.3 2802.82C2130.52 2799.7 2080.13 2785.88 2030.82 2761.62Z" fill="#284E22"/>
<path d="M2032.2 2764.59C2069.63 2846.87 2143.75 2911.87 2230.37 2938.35C2316.97 2964.81 2414.56 2952.28 2491.25 2904.87C2439.87 2836.69 2369.61 2780.67 2288.32 2754.39C2207.02 2728.11 2113.53 2739.31 2032.2 2764.59Z" fill="#003100"/>
</g>
<defs>
<clipPath id="clip0_153_1403">
<rect width="2466.54" height="2989.54" fill="white" transform="translate(1481.24) rotate(29.701)"/>
</clipPath>
</defs>
</svg>
