<svg width="18" height="19" viewBox="0 0 18 19" fill="none" xmlns="http://www.w3.org/2000/svg">
<g clip-path="url(#clip0_44_747)">
<path fill-rule="evenodd" clip-rule="evenodd" d="M9.00039 0.962402C4.28342 0.962402 0.462891 4.78293 0.462891 9.4999C0.462891 13.2777 2.90675 16.4686 6.30041 17.5999C6.72728 17.6746 6.88736 17.4184 6.88736 17.1943C6.88736 16.9916 6.87669 16.3192 6.87669 15.6042C4.73164 15.9991 4.1767 15.0813 4.00595 14.6011C3.90991 14.3556 3.4937 13.5979 3.13086 13.3951C2.83205 13.2351 2.40517 12.8402 3.12019 12.8295C3.79252 12.8189 4.27275 13.4485 4.43283 13.7046C5.2012 14.9959 6.42847 14.6331 6.91938 14.409C6.99408 13.854 7.21819 13.4805 7.46364 13.2671C5.56405 13.0536 3.57908 12.3173 3.57908 9.05168C3.57908 8.12323 3.90991 7.35486 4.45417 6.75723C4.3688 6.54379 4.06998 5.6687 4.53955 4.49479C4.53955 4.49479 5.25456 4.27068 6.88736 5.36989C7.57036 5.17779 8.29605 5.08175 9.02174 5.08175C9.74742 5.08175 10.4731 5.17779 11.1561 5.36989C12.7889 4.26001 13.5039 4.49479 13.5039 4.49479C13.9735 5.6687 13.6747 6.54379 13.5893 6.75723C14.1336 7.35486 14.4644 8.11256 14.4644 9.05168C14.4644 12.3279 12.4688 13.0536 10.5692 13.2671C10.8786 13.5339 11.1454 14.0461 11.1454 14.8465C11.1454 15.9884 11.1348 16.9062 11.1348 17.1943C11.1348 17.4184 11.2948 17.6852 11.7217 17.5999C13.4165 17.0276 14.8893 15.9384 15.9326 14.4854C16.9759 13.0323 17.5374 11.2887 17.5379 9.4999C17.5379 4.78293 13.7174 0.962402 9.00039 0.962402Z" fill="black"/>
</g>
<defs>
<clipPath id="clip0_44_747">
<rect x="0.462891" y="0.962402" width="17.075" height="17.075" rx="8.5375" fill="white"/>
</clipPath>
</defs>
</svg>
