<svg width="18" height="19" viewBox="0 0 18 19" fill="none" xmlns="http://www.w3.org/2000/svg">
<g clip-path="url(#clip0_44_740)">
<path d="M17.7046 7.82771H17.0169V7.79228H9.33325V11.2072H14.1581C13.4542 13.1951 11.5628 14.6222 9.33325 14.6222C6.5044 14.6222 4.21084 12.3286 4.21084 9.49975C4.21084 6.6709 6.5044 4.37734 9.33325 4.37734C10.639 4.37734 11.827 4.86995 12.7315 5.67459L15.1463 3.2598C13.6216 1.83876 11.582 0.962402 9.33325 0.962402C4.6185 0.962402 0.795898 4.785 0.795898 9.49975C0.795898 14.2145 4.6185 18.0371 9.33325 18.0371C14.048 18.0371 17.8706 14.2145 17.8706 9.49975C17.8706 8.92733 17.8117 8.36856 17.7046 7.82771Z" fill="#FFC107"/>
<path d="M1.7793 5.52604L4.58424 7.58312C5.34321 5.70405 7.18131 4.37734 9.33229 4.37734C10.6381 4.37734 11.8261 4.86995 12.7306 5.67459L15.1454 3.2598C13.6206 1.83876 11.581 0.962402 9.33229 0.962402C6.0531 0.962402 3.2093 2.81373 1.7793 5.52604Z" fill="#FF3D00"/>
<path d="M9.33378 18.0373C11.539 18.0373 13.5427 17.1934 15.0576 15.821L12.4153 13.5851C11.5294 14.2588 10.4468 14.6232 9.33378 14.6224C7.11321 14.6224 5.22774 13.2064 4.51743 11.2305L1.7334 13.3755C3.14633 16.1403 6.01573 18.0373 9.33378 18.0373Z" fill="#4CAF50"/>
<path d="M17.7043 7.82767H17.0166V7.79224H9.33301V11.2072H14.1579C13.8212 12.1533 13.2147 12.98 12.4133 13.5853L12.4146 13.5844L15.0569 15.8203C14.8699 15.9902 17.8704 13.7684 17.8704 9.49971C17.8704 8.92728 17.8115 8.36851 17.7043 7.82767Z" fill="#1976D2"/>
</g>
<defs>
<clipPath id="clip0_44_740">
<rect x="0.795898" y="0.962402" width="17.075" height="17.075" rx="8.5375" fill="white"/>
</clipPath>
</defs>
</svg>
