<svg width="43" height="45" viewBox="0 0 43 45" fill="none" xmlns="http://www.w3.org/2000/svg">
<path fill-rule="evenodd" clip-rule="evenodd" d="M27.4468 26.2598C29.2767 24.5699 30.4281 22.1147 30.4281 19.3823C30.4281 14.285 26.4212 10.1528 21.4784 10.1528C16.5356 10.1528 12.5286 14.285 12.5286 19.3823C12.5286 22.1148 13.6801 24.5699 15.51 26.2598C12.8065 27.5399 10.5561 29.6628 9.0752 32.3023L12.176 34.1484C14.0331 30.8385 17.5036 28.6117 21.4784 28.6117C25.4532 28.6117 28.9237 30.8385 30.7808 34.1484L33.8816 32.3022C32.4007 29.6628 30.1503 27.5399 27.4468 26.2598ZM26.8482 19.3823C26.8482 22.4406 24.4441 24.9199 21.4784 24.9199C18.5127 24.9199 16.1085 22.4406 16.1085 19.3823C16.1085 16.3239 18.5127 13.8446 21.4784 13.8446C24.4441 13.8446 26.8482 16.3239 26.8482 19.3823Z" fill="white"/>
</svg>
