<svg width="61" height="50" viewBox="0 0 61 50" fill="none" xmlns="http://www.w3.org/2000/svg">
<path d="M34.9462 48.5087C34.9921 48.5551 36.4039 48.9128 38.0832 49.3033C39.7627 49.6937 41.1551 49.9542 41.1777 49.8826C41.2001 49.8107 41.3769 48.6448 41.5705 47.2916C41.9593 44.5741 42.8921 41.4025 43.8853 39.42C46.981 33.2414 52.5174 29.1592 59.2224 28.1116L60.9298 27.8448L60.9367 25.1119L60.9437 22.3789L59.3974 22.1154C49.267 20.3893 42.679 12.7947 41.4718 1.45134C41.3931 0.71063 41.2982 0.104711 41.261 0.104617C40.9192 0.103747 35.2521 1.45425 35.1448 1.5621C35.0671 1.64009 35.123 2.33444 35.2691 3.10483C36.8862 11.6356 41.5612 18.5858 47.6433 21.5024L49.1022 22.202L19.0643 22.1801L0.0702854 22.1664L0.0562125 27.6973L19.0989 27.7803L49.0657 27.9113L47.2192 28.841C42.4289 31.2526 38.6291 35.9974 36.3824 42.3735C35.7421 44.19 34.7725 48.3325 34.9462 48.5087Z" fill="white"/>
</svg>
