<svg width="353" height="321" viewBox="0 0 353 321" fill="none" xmlns="http://www.w3.org/2000/svg">
<g clip-path="url(#clip0_88_1127)">
<path d="M282.387 215.66C273.666 210.193 266.63 202.136 262.974 193.429C259.319 184.722 259.077 175.441 262.306 167.824C273.82 174.279 282.563 185.892 283.819 197.204C284.512 203.42 283.703 209.886 282.387 215.66Z" fill="#003100"/>
<path d="M298.277 182.538C292.674 179.473 286.919 176.732 281.059 174.314C275.177 171.966 269.206 169.944 263.193 168.213C257.171 166.54 251.114 165.177 245.055 164.061C238.995 162.998 232.938 162.207 226.903 161.625C202.726 159.396 179.255 161.349 156.298 164.391C133.308 167.438 110.663 171.652 87.2127 174.081C63.8231 176.506 39.4403 177.204 14.4292 173.037C12.4481 172.708 10.8199 171.011 10.7904 169.243C10.7608 167.476 12.3429 166.312 14.3223 166.639C14.3382 166.641 14.3753 166.649 14.3912 166.651C38.3763 171.04 62.2646 170.811 85.4926 168.807C108.773 166.81 131.565 163.001 154.844 160.331C178.086 157.67 202.007 156.085 226.618 158.753C232.761 159.442 238.919 160.348 245.08 161.528C251.239 162.762 257.392 164.247 263.504 166.044C269.607 167.901 275.661 170.051 281.615 172.531C287.548 175.081 293.364 177.957 299.014 181.155C299.482 181.42 299.697 181.945 299.493 182.325C299.291 182.701 298.756 182.797 298.292 182.541L298.277 182.538Z" fill="#284E22"/>
<path d="M176.59 162.14C167.781 158.397 159.993 151.726 155.304 143.907C150.618 136.09 149.083 127.215 151.111 119.653C156.973 120.319 162.915 123.328 167.74 127.178C172.568 131.028 176.191 136.169 177.825 141.483C179.98 148.488 178.949 156.002 176.59 162.14Z" fill="#003100"/>
<path d="M296.793 142.036C297.331 141.187 295.67 140.162 295.129 141.012C288.161 151.995 277.934 160.809 265.425 166.587C264.462 167.033 265.48 168.59 266.45 168.143C279.223 162.243 289.677 153.254 296.793 142.036Z" fill="#A36874"/>
<path d="M266.216 166.975C270.135 161.302 272.605 154.705 273.442 147.626C273.564 146.601 271.75 145.941 271.627 146.975C270.803 153.93 268.405 160.376 264.552 165.95C263.981 166.779 265.643 167.802 266.216 166.975Z" fill="#A36874"/>
<path d="M309.551 163.207C310.709 163.164 310.125 161.495 308.972 161.538C294.326 162.091 280.124 164.147 266.59 167.623C265.524 167.897 266.557 169.452 267.616 169.18C280.995 165.745 295.078 163.754 309.551 163.207Z" fill="#A36874"/>
<path d="M295.004 171.095C285.555 169.278 276.185 168.734 267.113 169.466C265.972 169.558 266.721 171.201 267.851 171.109C276.582 170.404 285.688 170.942 294.784 172.692C295.967 172.919 296.195 171.326 295.004 171.095Z" fill="#A36874"/>
<path d="M295.241 143.052C299.572 143.306 303.676 142.141 306.644 139.817C309.609 137.493 311.414 134.026 311.658 130.189C306.883 127.583 300.94 127.275 297.366 129.951C293.789 132.627 293.073 138.495 295.241 143.052Z" fill="#D9CFD9"/>
<path d="M295.211 143.034C292.155 139.805 290.129 135.849 289.543 131.962C288.956 128.076 289.812 124.282 291.934 121.345C295.269 121.74 298.451 124.127 299.907 127.064C301.363 130.001 301.249 133.178 300.183 135.805C299.116 138.432 297.332 141.118 295.211 143.034Z" fill="#E9E9E9"/>
<path d="M305.682 161.949C308.206 165.574 311.999 168.611 316.217 170.385C320.435 172.157 325.047 172.653 329.027 171.763C328.561 167.103 325.058 162.14 320.1 159.969C315.141 157.797 308.834 158.876 305.682 161.949Z" fill="#D9CFD9"/>
<path d="M305.681 161.919C306.94 158.495 309.584 155.708 313.081 154.123C316.579 152.537 320.91 152.16 325.198 153.07C326.943 155.917 326.605 159.207 324.611 161.236C322.616 163.264 319.375 164.074 316.075 163.946C312.773 163.817 308.953 163.115 305.681 161.919Z" fill="#E9E9E9"/>
<path d="M290.78 170.856C292.917 174.631 296.412 177.953 300.488 180.089C304.562 182.223 309.189 183.153 313.337 182.671C313.413 178.091 310.438 172.921 305.657 170.325C300.876 167.73 294.343 168.17 290.78 170.856Z" fill="#D9CFD9"/>
<path d="M290.783 170.828C292.463 167.617 295.477 165.16 299.216 163.955C302.955 162.75 307.396 162.802 311.645 164.103C313.082 167.043 312.352 170.214 310.089 171.996C307.825 173.779 304.44 174.254 301.102 173.808C297.763 173.362 293.964 172.307 290.783 170.828Z" fill="#E9E9E9"/>
<path d="M271.541 150.413C268 147.5 265.39 143.634 264.29 139.674C263.19 135.714 263.61 131.692 265.456 128.499C270.593 129.881 275.432 133.91 276.823 138.583C278.215 143.256 275.664 148.386 271.541 150.413Z" fill="#D9CFD9"/>
<path d="M271.576 150.42C275.692 150.075 279.385 148.42 281.908 145.785C284.432 143.15 285.774 139.551 285.661 135.716C282.83 133.63 279.059 133.222 276.355 134.485C273.652 135.749 272.054 138.33 271.5 141.162C270.945 143.993 270.925 147.387 271.576 150.42Z" fill="#E9E9E9"/>
<path d="M143.952 202.107C144.848 202.966 143.611 203.972 142.713 203.109C131.118 191.995 117.164 183.011 102.197 177.038C101.043 176.578 101.412 175.029 102.571 175.492C117.855 181.592 132.109 190.756 143.952 202.107Z" fill="#A36874"/>
<path d="M102.825 176.663C109.134 182.407 114.38 189.06 118.187 196.17C118.739 197.2 117.196 197.836 116.639 196.797C112.896 189.81 107.788 183.311 101.586 177.666C100.665 176.828 101.904 175.825 102.825 176.663Z" fill="#A36874"/>
<path d="M147.868 181.051C149.047 181.111 149.163 182.776 147.988 182.717C133.067 181.955 117.961 179.694 102.927 176.017C101.744 175.727 102.127 174.183 103.303 174.47C118.161 178.105 133.123 180.3 147.868 181.051Z" fill="#A36874"/>
<path d="M129.969 172.935C121.253 174.625 112.084 175.037 102.68 174.176C101.496 174.068 101.56 172.431 102.731 172.539C111.784 173.369 120.691 172.957 129.08 171.331C130.171 171.119 131.068 172.722 129.969 172.935Z" fill="#A36874"/>
<path d="M141.969 201.066C146.206 200.871 150.812 202.099 154.76 204.471C158.709 206.843 161.974 210.346 163.827 214.199C160.13 216.745 154.3 216.97 149.593 214.236C144.886 211.501 141.706 205.605 141.969 201.066Z" fill="#D9CFD9"/>
<path d="M141.946 201.083C140.235 204.277 139.863 208.217 140.903 212.107C141.944 215.996 144.393 219.814 147.755 222.789C150.934 222.439 153.124 220.091 153.353 217.167C153.582 214.241 152.135 211.053 149.963 208.403C147.792 205.753 144.877 203.036 141.946 201.083Z" fill="#E9E9E9"/>
<path d="M144.515 182.258C145.527 178.657 148.056 175.666 151.543 173.947C155.03 172.228 159.449 171.797 163.813 172.745C165.301 177.411 163.868 182.339 159.805 184.448C155.744 186.558 148.966 185.387 144.515 182.258Z" fill="#D9CFD9"/>
<path d="M144.527 182.29C147.225 185.742 151.045 188.574 155.218 190.215C159.391 191.855 163.891 192.293 167.812 191.443C168.369 188.61 166.648 185.307 163.797 183.244C160.946 181.181 157.357 180.322 154.1 180.405C150.842 180.488 147.307 181.137 144.527 182.29Z" fill="#E9E9E9"/>
<path d="M125.832 173.116C126.392 169.361 128.503 166.076 131.696 163.994C134.887 161.91 139.138 161.043 143.5 161.586C145.496 166.179 144.682 171.324 140.975 173.859C137.27 176.393 130.533 175.859 125.832 173.116Z" fill="#D9CFD9"/>
<path d="M125.847 173.145C128.88 176.391 132.932 178.896 137.188 180.158C141.444 181.42 145.876 181.429 149.592 180.186C149.799 177.257 147.738 174.067 144.72 172.248C141.703 170.429 138.107 169.906 134.946 170.304C131.783 170.703 128.418 171.705 125.847 173.145Z" fill="#E9E9E9"/>
<path d="M115.114 193.35C112.784 196.222 111.787 200.062 112.345 204.017C112.903 207.972 115.012 212.013 118.202 215.243C122.776 213.929 125.94 209.958 125.374 205.289C124.807 200.622 120.098 195.441 115.114 193.35Z" fill="#D9CFD9"/>
<path d="M115.143 193.342C119.415 193.745 123.813 195.458 127.451 198.136C131.088 200.815 133.942 204.442 135.439 208.289C133.473 210.342 129.864 210.699 126.622 209.392C123.381 208.088 120.696 205.474 118.951 202.627C117.207 199.778 115.761 196.375 115.143 193.342Z" fill="#E9E9E9"/>
<path d="M223.346 161.104C224.441 160.882 223.69 159.241 222.592 159.465C208.431 162.348 192.909 161.91 177.528 158.185C176.343 157.897 176.133 159.497 177.325 159.786C193.032 163.589 208.882 164.048 223.346 161.104Z" fill="#A36874"/>
<path d="M177.957 158.897C185.558 157.6 192.526 154.85 198.375 150.826C199.223 150.244 198.072 148.746 197.217 149.333C191.467 153.286 184.673 155.98 177.201 157.256C176.094 157.447 176.848 159.087 177.957 158.897Z" fill="#A36874"/>
<path d="M219.535 182.193C220.605 182.852 221.283 181.44 220.219 180.784C206.687 172.452 192.468 165.342 177.826 159.536C176.673 159.078 176.48 160.683 177.625 161.138C192.098 166.875 206.161 173.957 219.535 182.193Z" fill="#A36874"/>
<path d="M200.807 178.603C193.641 171.837 185.631 165.933 176.968 161.021C175.879 160.402 175.367 161.896 176.446 162.508C184.785 167.236 192.563 172.981 199.459 179.492C200.356 180.338 201.709 179.456 200.807 178.603Z" fill="#A36874"/>
<path d="M221.222 160.832C224.923 163.563 229.443 165.253 233.778 165.528C238.113 165.803 242.228 164.66 245.21 162.353C242.804 157.858 237.697 154.135 232.565 153.724C227.431 153.314 222.561 156.635 221.222 160.832Z" fill="#D9CFD9"/>
<path d="M221.209 160.802C220.794 156.928 221.829 153.2 224.101 150.369C226.376 147.539 229.875 145.623 233.895 145.007C236.6 147.237 237.734 150.649 236.924 153.388C236.114 156.127 233.722 158.089 230.874 159.135C228.025 160.179 224.492 160.835 221.209 160.802Z" fill="#E9E9E9"/>
<path d="M216.971 179.093C216.622 182.906 217.837 187.095 220.341 190.729C222.847 194.363 226.626 197.415 230.837 199.207C233.776 195.955 234.21 190.707 231.328 186.38C228.447 182.053 222.013 179 216.971 179.093Z" fill="#D9CFD9"/>
<path d="M216.993 179.073C220.589 177.632 224.966 177.421 229.247 178.482C233.527 179.543 237.68 181.87 240.872 184.994C240.385 187.848 237.711 189.747 234.461 189.86C231.212 189.974 227.721 188.57 224.854 186.53C221.985 184.489 219.065 181.777 216.993 179.073Z" fill="#E9E9E9"/>
<path d="M197.19 175.945C196.388 179.623 197.128 183.817 199.245 187.597C201.362 191.376 204.841 194.713 208.908 196.866C212.276 193.986 213.334 188.919 210.916 184.428C208.496 179.936 202.32 176.342 197.19 175.945Z" fill="#D9CFD9"/>
<path d="M197.213 175.927C201.033 174.873 205.506 175.091 209.728 176.538C213.95 177.985 217.894 180.653 220.768 184.003C219.939 186.734 217 188.324 213.686 188.119C210.372 187.914 206.994 186.211 204.321 183.946C201.646 181.683 198.999 178.759 197.213 175.927Z" fill="#E9E9E9"/>
<path d="M194.665 151.477C193.587 147.517 194.031 143.5 195.899 140.319C197.765 137.139 201.041 134.818 204.996 133.873C208.609 137.803 210.046 143.244 207.925 147.054C205.805 150.863 199.823 152.629 194.665 151.477Z" fill="#D9CFD9"/>
<path d="M194.691 151.503C198.629 153.725 203.135 154.858 207.296 154.671C211.459 154.485 215.253 152.982 217.917 150.465C216.88 147.453 213.794 144.956 210.46 144.161C207.123 143.365 203.832 144.067 201.294 145.545C198.756 147.024 196.293 149.179 194.691 151.503Z" fill="#E9E9E9"/>
<path d="M262.117 165.746C271.486 168.671 280.412 174.043 287.415 180.972C294.419 187.902 299.472 196.361 301.738 204.948C291.744 204.298 281.099 199.757 273.504 192.507C265.907 185.26 262.211 174.724 262.117 165.746Z" fill="#284E22"/>
<path d="M176.34 162.383C179.557 160.641 181.903 157.925 183.857 155.027C191.563 143.601 193.752 128.638 189.883 113.832C185.371 113.455 180.654 114.808 177.36 116.994C174.066 119.181 171.67 122.3 170.03 125.771C165.035 136.343 167.849 151.157 176.34 162.383Z" fill="#284E22"/>
<path d="M98.0818 168.043C100.29 169.155 102.182 170.861 103.667 172.75C105.15 174.637 106.249 176.709 107.182 178.794C111.494 188.43 112.395 198.734 109.702 207.607C104.131 205.734 99.7898 200.786 97.6003 195.754C95.4108 190.722 95.1015 185.51 95.0894 180.475C95.0775 175.926 96.0896 171.875 98.0818 168.043Z" fill="#284E22"/>
<path d="M97.8121 168.122C90.3377 170.25 84.6797 175.662 82.6873 182.592C80.6958 189.52 82.4051 197.845 87.2552 204.847C93.3363 201.378 98.1768 196.18 100.181 189.694C102.185 183.207 100.622 175.242 97.8121 168.122Z" fill="#003100"/>
</g>
<defs>
<clipPath id="clip0_88_1127">
<rect width="193.653" height="295.091" fill="white" transform="translate(352.853 155.797) rotate(121.868)"/>
</clipPath>
</defs>
</svg>
